<mxfile host="Electron" agent="Mozilla/5.0 (Windows NT 10.0; Win64; x64) AppleWebKit/537.36 (KHTML, like Gecko) draw.io/28.0.4 Chrome/138.0.7204.97 Electron/37.2.1 Safari/537.36" version="28.0.4">
  <diagram name="Page-1" id="96t14Fz495fTJWyjw9KT">
    <mxGraphModel dx="1011" dy="501" grid="1" gridSize="10" guides="1" tooltips="1" connect="1" arrows="1" fold="1" page="1" pageScale="1" pageWidth="850" pageHeight="1100" math="0" shadow="0">
      <root>
        <mxCell id="0" />
        <mxCell id="1" parent="0" />
        <mxCell id="Cz5oNogYVRAU58iX15Uh-135" value="CI_CD_and_Post_Deployment" style="whiteSpace=wrap;strokeWidth=2;" vertex="1" parent="1">
          <mxGeometry x="95" y="2286" width="585" height="665" as="geometry" />
        </mxCell>
        <mxCell id="Cz5oNogYVRAU58iX15Uh-136" value="PR_Review_and_Merge" style="whiteSpace=wrap;strokeWidth=2;" vertex="1" parent="1">
          <mxGeometry x="246" y="1778" width="567" height="458" as="geometry" />
        </mxCell>
        <mxCell id="Cz5oNogYVRAU58iX15Uh-137" value="Autofix_and_Patch_Engine" style="whiteSpace=wrap;strokeWidth=2;" vertex="1" parent="1">
          <mxGeometry x="48" y="964" width="992" height="764" as="geometry" />
        </mxCell>
        <mxCell id="Cz5oNogYVRAU58iX15Uh-138" value="CVE_to_Fix_Mapping" style="whiteSpace=wrap;strokeWidth=2;" vertex="1" parent="1">
          <mxGeometry x="323" y="682" width="330" height="232" as="geometry" />
        </mxCell>
        <mxCell id="Cz5oNogYVRAU58iX15Uh-139" value="Static_and_Dependency_Scanning" style="whiteSpace=wrap;strokeWidth=2;" vertex="1" parent="1">
          <mxGeometry x="20" y="248" width="851" height="384" as="geometry" />
        </mxCell>
        <mxCell id="Cz5oNogYVRAU58iX15Uh-140" value="Start" style="ellipse;aspect=fixed;strokeWidth=2;whiteSpace=wrap;" vertex="1" parent="1">
          <mxGeometry x="372" y="20" width="50" height="50" as="geometry" />
        </mxCell>
        <mxCell id="Cz5oNogYVRAU58iX15Uh-141" value="Prepare Source&#xa;Git Clone / ZIP / Sparse" style="rounded=1;arcSize=20;strokeWidth=2" vertex="1" parent="1">
          <mxGeometry x="296" y="120" width="201" height="78" as="geometry" />
        </mxCell>
        <mxCell id="Cz5oNogYVRAU58iX15Uh-142" value="Scan Engine&#xa;Tool Orchestration" style="rounded=1;arcSize=20;strokeWidth=2" vertex="1" parent="1">
          <mxGeometry x="316" y="273" width="162" height="78" as="geometry" />
        </mxCell>
        <mxCell id="Cz5oNogYVRAU58iX15Uh-143" value="🔍 Semgrep" style="whiteSpace=wrap;strokeWidth=2;" vertex="1" parent="1">
          <mxGeometry x="86" y="413" width="148" height="54" as="geometry" />
        </mxCell>
        <mxCell id="Cz5oNogYVRAU58iX15Uh-144" value="📦 Snyk / Trivy / OWASP DC" style="whiteSpace=wrap;strokeWidth=2;" vertex="1" parent="1">
          <mxGeometry x="285" y="401" width="260" height="78" as="geometry" />
        </mxCell>
        <mxCell id="Cz5oNogYVRAU58iX15Uh-145" value="🔑 GitLeaks / TruffleHog" style="whiteSpace=wrap;strokeWidth=2;" vertex="1" parent="1">
          <mxGeometry x="595" y="413" width="241" height="54" as="geometry" />
        </mxCell>
        <mxCell id="Cz5oNogYVRAU58iX15Uh-146" value="📄 Unified Scan Report (SARIF / JSON)" style="whiteSpace=wrap;strokeWidth=2;" vertex="1" parent="1">
          <mxGeometry x="358" y="529" width="260" height="78" as="geometry" />
        </mxCell>
        <mxCell id="Cz5oNogYVRAU58iX15Uh-147" value="🧠 CVE-to-Rule Mapping Engine" style="whiteSpace=wrap;strokeWidth=2;" vertex="1" parent="1">
          <mxGeometry x="358" y="707" width="260" height="78" as="geometry" />
        </mxCell>
        <mxCell id="Cz5oNogYVRAU58iX15Uh-148" value="📘 CWE → Fixer Map" style="whiteSpace=wrap;strokeWidth=2;" vertex="1" parent="1">
          <mxGeometry x="381" y="835" width="214" height="54" as="geometry" />
        </mxCell>
        <mxCell id="Cz5oNogYVRAU58iX15Uh-149" value="🎯 Match Found &amp; Eligible?" style="rhombus;strokeWidth=2;whiteSpace=wrap;" vertex="1" parent="1">
          <mxGeometry x="362" y="989" width="251" height="251" as="geometry" />
        </mxCell>
        <mxCell id="Cz5oNogYVRAU58iX15Uh-150" value="📋 Log + Notify Developer" style="whiteSpace=wrap;strokeWidth=2;" vertex="1" parent="1">
          <mxGeometry x="86" y="1313" width="250" height="54" as="geometry" />
        </mxCell>
        <mxCell id="Cz5oNogYVRAU58iX15Uh-151" value="⚙️ Choose Autofix Tool" style="whiteSpace=wrap;strokeWidth=2;" vertex="1" parent="1">
          <mxGeometry x="507" y="1313" width="227" height="54" as="geometry" />
        </mxCell>
        <mxCell id="Cz5oNogYVRAU58iX15Uh-152" value="🛠 Semgrep Fix" style="whiteSpace=wrap;strokeWidth=2;" vertex="1" parent="1">
          <mxGeometry x="106" y="1417" width="168" height="54" as="geometry" />
        </mxCell>
        <mxCell id="Cz5oNogYVRAU58iX15Uh-153" value="🛠 JavaParser Fix" style="whiteSpace=wrap;strokeWidth=2;" vertex="1" parent="1">
          <mxGeometry x="356" y="1417" width="183" height="54" as="geometry" />
        </mxCell>
        <mxCell id="Cz5oNogYVRAU58iX15Uh-154" value="🛠 Snyk Patch CLI" style="whiteSpace=wrap;strokeWidth=2;" vertex="1" parent="1">
          <mxGeometry x="589" y="1417" width="185" height="54" as="geometry" />
        </mxCell>
        <mxCell id="Cz5oNogYVRAU58iX15Uh-155" value="🤖 GPT Fixer" style="whiteSpace=wrap;strokeWidth=2;" vertex="1" parent="1">
          <mxGeometry x="824" y="1417" width="156" height="54" as="geometry" />
        </mxCell>
        <mxCell id="Cz5oNogYVRAU58iX15Uh-156" value="🧪 Validate Fix (Tests, Compile)" style="whiteSpace=wrap;strokeWidth=2;" vertex="1" parent="1">
          <mxGeometry x="490" y="1521" width="260" height="78" as="geometry" />
        </mxCell>
        <mxCell id="Cz5oNogYVRAU58iX15Uh-157" value="📦 Create Patch / PR" style="whiteSpace=wrap;strokeWidth=2;" vertex="1" parent="1">
          <mxGeometry x="512" y="1649" width="215" height="54" as="geometry" />
        </mxCell>
        <mxCell id="Cz5oNogYVRAU58iX15Uh-158" value="🔁 PR Review (Dev + Security)" style="whiteSpace=wrap;strokeWidth=2;" vertex="1" parent="1">
          <mxGeometry x="490" y="1803" width="260" height="78" as="geometry" />
        </mxCell>
        <mxCell id="Cz5oNogYVRAU58iX15Uh-159" value="✅ Approved?" style="rhombus;strokeWidth=2;whiteSpace=wrap;" vertex="1" parent="1">
          <mxGeometry x="544" y="1931" width="153" height="153" as="geometry" />
        </mxCell>
        <mxCell id="Cz5oNogYVRAU58iX15Uh-160" value="📥 Merge + Trigger CI" style="whiteSpace=wrap;strokeWidth=2;" vertex="1" parent="1">
          <mxGeometry x="292" y="2157" width="216" height="54" as="geometry" />
        </mxCell>
        <mxCell id="Cz5oNogYVRAU58iX15Uh-161" value="🛑 Request Changes" style="whiteSpace=wrap;strokeWidth=2;" vertex="1" parent="1">
          <mxGeometry x="558" y="2157" width="207" height="54" as="geometry" />
        </mxCell>
        <mxCell id="Cz5oNogYVRAU58iX15Uh-162" value="🧪 CI: Test, Lint, Build" style="whiteSpace=wrap;strokeWidth=2;" vertex="1" parent="1">
          <mxGeometry x="287" y="2311" width="225" height="54" as="geometry" />
        </mxCell>
        <mxCell id="Cz5oNogYVRAU58iX15Uh-163" value="✅ CI Passed?" style="rhombus;strokeWidth=2;whiteSpace=wrap;" vertex="1" parent="1">
          <mxGeometry x="323" y="2415" width="153" height="153" as="geometry" />
        </mxCell>
        <mxCell id="Cz5oNogYVRAU58iX15Uh-164" value="🚀 CD: Deploy to Staging/Prod" style="whiteSpace=wrap;strokeWidth=2;" vertex="1" parent="1">
          <mxGeometry x="130" y="2640" width="260" height="78" as="geometry" />
        </mxCell>
        <mxCell id="Cz5oNogYVRAU58iX15Uh-165" value="❗ Alert Developer" style="whiteSpace=wrap;strokeWidth=2;" vertex="1" parent="1">
          <mxGeometry x="440" y="2652" width="198" height="54" as="geometry" />
        </mxCell>
        <mxCell id="Cz5oNogYVRAU58iX15Uh-166" value="🌐 DAST Scan (ZAP / Burp)" style="whiteSpace=wrap;strokeWidth=2;" vertex="1" parent="1">
          <mxGeometry x="133" y="2768" width="255" height="54" as="geometry" />
        </mxCell>
        <mxCell id="Cz5oNogYVRAU58iX15Uh-167" value="📊 DAST Report" style="whiteSpace=wrap;strokeWidth=2;" vertex="1" parent="1">
          <mxGeometry x="173" y="2872" width="175" height="54" as="geometry" />
        </mxCell>
        <mxCell id="Cz5oNogYVRAU58iX15Uh-168" value="" style="curved=1;startArrow=none;endArrow=block;exitX=0.5;exitY=1;entryX=0.5;entryY=0;rounded=0;" edge="1" parent="1" source="Cz5oNogYVRAU58iX15Uh-140" target="Cz5oNogYVRAU58iX15Uh-141">
          <mxGeometry relative="1" as="geometry">
            <Array as="points" />
          </mxGeometry>
        </mxCell>
        <mxCell id="Cz5oNogYVRAU58iX15Uh-169" value="" style="curved=1;startArrow=none;endArrow=block;exitX=0.5;exitY=1;entryX=0.5;entryY=0;rounded=0;" edge="1" parent="1" source="Cz5oNogYVRAU58iX15Uh-141" target="Cz5oNogYVRAU58iX15Uh-142">
          <mxGeometry relative="1" as="geometry">
            <Array as="points" />
          </mxGeometry>
        </mxCell>
        <mxCell id="Cz5oNogYVRAU58iX15Uh-170" value="" style="curved=1;startArrow=none;endArrow=block;exitX=0;exitY=0.78;entryX=0.5;entryY=0;rounded=0;" edge="1" parent="1" source="Cz5oNogYVRAU58iX15Uh-142" target="Cz5oNogYVRAU58iX15Uh-143">
          <mxGeometry relative="1" as="geometry">
            <Array as="points">
              <mxPoint x="161" y="376" />
            </Array>
          </mxGeometry>
        </mxCell>
        <mxCell id="Cz5oNogYVRAU58iX15Uh-171" value="" style="curved=1;startArrow=none;endArrow=block;exitX=0.57;exitY=1;entryX=0.5;entryY=0;rounded=0;" edge="1" parent="1" source="Cz5oNogYVRAU58iX15Uh-142" target="Cz5oNogYVRAU58iX15Uh-144">
          <mxGeometry relative="1" as="geometry">
            <Array as="points">
              <mxPoint x="415" y="376" />
            </Array>
          </mxGeometry>
        </mxCell>
        <mxCell id="Cz5oNogYVRAU58iX15Uh-172" value="" style="curved=1;startArrow=none;endArrow=block;exitX=1;exitY=0.71;entryX=0.5;entryY=0;rounded=0;" edge="1" parent="1" source="Cz5oNogYVRAU58iX15Uh-142" target="Cz5oNogYVRAU58iX15Uh-145">
          <mxGeometry relative="1" as="geometry">
            <Array as="points">
              <mxPoint x="715" y="376" />
            </Array>
          </mxGeometry>
        </mxCell>
        <mxCell id="Cz5oNogYVRAU58iX15Uh-173" value="" style="curved=1;startArrow=none;endArrow=block;exitX=0.5;exitY=1;entryX=0;entryY=0.17;rounded=0;" edge="1" parent="1" source="Cz5oNogYVRAU58iX15Uh-143" target="Cz5oNogYVRAU58iX15Uh-146">
          <mxGeometry relative="1" as="geometry">
            <Array as="points">
              <mxPoint x="161" y="504" />
            </Array>
          </mxGeometry>
        </mxCell>
        <mxCell id="Cz5oNogYVRAU58iX15Uh-174" value="" style="curved=1;startArrow=none;endArrow=block;exitX=0.5;exitY=1;entryX=0.33;entryY=0;rounded=0;" edge="1" parent="1" source="Cz5oNogYVRAU58iX15Uh-144" target="Cz5oNogYVRAU58iX15Uh-146">
          <mxGeometry relative="1" as="geometry">
            <Array as="points">
              <mxPoint x="415" y="504" />
            </Array>
          </mxGeometry>
        </mxCell>
        <mxCell id="Cz5oNogYVRAU58iX15Uh-175" value="" style="curved=1;startArrow=none;endArrow=block;exitX=0.5;exitY=1;entryX=1;entryY=0.03;rounded=0;" edge="1" parent="1" source="Cz5oNogYVRAU58iX15Uh-145" target="Cz5oNogYVRAU58iX15Uh-146">
          <mxGeometry relative="1" as="geometry">
            <Array as="points">
              <mxPoint x="715" y="504" />
            </Array>
          </mxGeometry>
        </mxCell>
        <mxCell id="Cz5oNogYVRAU58iX15Uh-176" value="" style="curved=1;startArrow=none;endArrow=block;exitX=0.5;exitY=1;entryX=0.5;entryY=0;rounded=0;" edge="1" parent="1" source="Cz5oNogYVRAU58iX15Uh-146" target="Cz5oNogYVRAU58iX15Uh-147">
          <mxGeometry relative="1" as="geometry">
            <Array as="points" />
          </mxGeometry>
        </mxCell>
        <mxCell id="Cz5oNogYVRAU58iX15Uh-177" value="" style="curved=1;startArrow=none;endArrow=block;exitX=0.5;exitY=1;entryX=0.5;entryY=0;rounded=0;" edge="1" parent="1" source="Cz5oNogYVRAU58iX15Uh-147" target="Cz5oNogYVRAU58iX15Uh-148">
          <mxGeometry relative="1" as="geometry">
            <Array as="points" />
          </mxGeometry>
        </mxCell>
        <mxCell id="Cz5oNogYVRAU58iX15Uh-178" value="" style="curved=1;startArrow=none;endArrow=block;exitX=0.5;exitY=1;entryX=0.5;entryY=0;rounded=0;" edge="1" parent="1" source="Cz5oNogYVRAU58iX15Uh-148" target="Cz5oNogYVRAU58iX15Uh-149">
          <mxGeometry relative="1" as="geometry">
            <Array as="points" />
          </mxGeometry>
        </mxCell>
        <mxCell id="Cz5oNogYVRAU58iX15Uh-179" value="No" style="curved=1;startArrow=none;endArrow=block;exitX=0;exitY=0.79;entryX=0.5;entryY=0;rounded=0;" edge="1" parent="1" source="Cz5oNogYVRAU58iX15Uh-149" target="Cz5oNogYVRAU58iX15Uh-150">
          <mxGeometry relative="1" as="geometry">
            <Array as="points">
              <mxPoint x="211" y="1277" />
            </Array>
          </mxGeometry>
        </mxCell>
        <mxCell id="Cz5oNogYVRAU58iX15Uh-180" value="Yes" style="curved=1;startArrow=none;endArrow=block;exitX=0.91;exitY=1;entryX=0.5;entryY=0;rounded=0;" edge="1" parent="1" source="Cz5oNogYVRAU58iX15Uh-149" target="Cz5oNogYVRAU58iX15Uh-151">
          <mxGeometry relative="1" as="geometry">
            <Array as="points">
              <mxPoint x="620" y="1277" />
            </Array>
          </mxGeometry>
        </mxCell>
        <mxCell id="Cz5oNogYVRAU58iX15Uh-181" value="" style="curved=1;startArrow=none;endArrow=block;exitX=0;exitY=0.76;entryX=0.5;entryY=0;rounded=0;" edge="1" parent="1" source="Cz5oNogYVRAU58iX15Uh-151" target="Cz5oNogYVRAU58iX15Uh-152">
          <mxGeometry relative="1" as="geometry">
            <Array as="points">
              <mxPoint x="190" y="1392" />
            </Array>
          </mxGeometry>
        </mxCell>
        <mxCell id="Cz5oNogYVRAU58iX15Uh-182" value="" style="curved=1;startArrow=none;endArrow=block;exitX=0.1;exitY=1;entryX=0.5;entryY=0;rounded=0;" edge="1" parent="1" source="Cz5oNogYVRAU58iX15Uh-151" target="Cz5oNogYVRAU58iX15Uh-153">
          <mxGeometry relative="1" as="geometry">
            <Array as="points">
              <mxPoint x="448" y="1392" />
            </Array>
          </mxGeometry>
        </mxCell>
        <mxCell id="Cz5oNogYVRAU58iX15Uh-183" value="" style="curved=1;startArrow=none;endArrow=block;exitX=0.64;exitY=1;entryX=0.5;entryY=0;rounded=0;" edge="1" parent="1" source="Cz5oNogYVRAU58iX15Uh-151" target="Cz5oNogYVRAU58iX15Uh-154">
          <mxGeometry relative="1" as="geometry">
            <Array as="points">
              <mxPoint x="681" y="1392" />
            </Array>
          </mxGeometry>
        </mxCell>
        <mxCell id="Cz5oNogYVRAU58iX15Uh-184" value="" style="curved=1;startArrow=none;endArrow=block;exitX=1;exitY=0.89;entryX=0.5;entryY=0;rounded=0;" edge="1" parent="1" source="Cz5oNogYVRAU58iX15Uh-151" target="Cz5oNogYVRAU58iX15Uh-155">
          <mxGeometry relative="1" as="geometry">
            <Array as="points">
              <mxPoint x="902" y="1392" />
            </Array>
          </mxGeometry>
        </mxCell>
        <mxCell id="Cz5oNogYVRAU58iX15Uh-185" value="" style="curved=1;startArrow=none;endArrow=block;exitX=0.5;exitY=1;entryX=0;entryY=0.25;rounded=0;" edge="1" parent="1" source="Cz5oNogYVRAU58iX15Uh-152" target="Cz5oNogYVRAU58iX15Uh-156">
          <mxGeometry relative="1" as="geometry">
            <Array as="points">
              <mxPoint x="190" y="1496" />
            </Array>
          </mxGeometry>
        </mxCell>
        <mxCell id="Cz5oNogYVRAU58iX15Uh-186" value="" style="curved=1;startArrow=none;endArrow=block;exitX=0.5;exitY=1;entryX=0.1;entryY=0;rounded=0;" edge="1" parent="1" source="Cz5oNogYVRAU58iX15Uh-153" target="Cz5oNogYVRAU58iX15Uh-156">
          <mxGeometry relative="1" as="geometry">
            <Array as="points">
              <mxPoint x="448" y="1496" />
            </Array>
          </mxGeometry>
        </mxCell>
        <mxCell id="Cz5oNogYVRAU58iX15Uh-187" value="" style="curved=1;startArrow=none;endArrow=block;exitX=0.5;exitY=1;entryX=0.64;entryY=0;rounded=0;" edge="1" parent="1" source="Cz5oNogYVRAU58iX15Uh-154" target="Cz5oNogYVRAU58iX15Uh-156">
          <mxGeometry relative="1" as="geometry">
            <Array as="points">
              <mxPoint x="681" y="1496" />
            </Array>
          </mxGeometry>
        </mxCell>
        <mxCell id="Cz5oNogYVRAU58iX15Uh-188" value="" style="curved=1;startArrow=none;endArrow=block;exitX=0.5;exitY=1;entryX=1;entryY=0.12;rounded=0;" edge="1" parent="1" source="Cz5oNogYVRAU58iX15Uh-155" target="Cz5oNogYVRAU58iX15Uh-156">
          <mxGeometry relative="1" as="geometry">
            <Array as="points">
              <mxPoint x="902" y="1496" />
            </Array>
          </mxGeometry>
        </mxCell>
        <mxCell id="Cz5oNogYVRAU58iX15Uh-189" value="" style="curved=1;startArrow=none;endArrow=block;exitX=0.5;exitY=1;entryX=0.5;entryY=0;rounded=0;" edge="1" parent="1" source="Cz5oNogYVRAU58iX15Uh-156" target="Cz5oNogYVRAU58iX15Uh-157">
          <mxGeometry relative="1" as="geometry">
            <Array as="points" />
          </mxGeometry>
        </mxCell>
        <mxCell id="Cz5oNogYVRAU58iX15Uh-190" value="" style="curved=1;startArrow=none;endArrow=block;exitX=0.5;exitY=1;entryX=0.5;entryY=0;rounded=0;" edge="1" parent="1" source="Cz5oNogYVRAU58iX15Uh-157" target="Cz5oNogYVRAU58iX15Uh-158">
          <mxGeometry relative="1" as="geometry">
            <Array as="points" />
          </mxGeometry>
        </mxCell>
        <mxCell id="Cz5oNogYVRAU58iX15Uh-191" value="" style="curved=1;startArrow=none;endArrow=block;exitX=0.5;exitY=1;entryX=0.5;entryY=0;rounded=0;" edge="1" parent="1" source="Cz5oNogYVRAU58iX15Uh-158" target="Cz5oNogYVRAU58iX15Uh-159">
          <mxGeometry relative="1" as="geometry">
            <Array as="points" />
          </mxGeometry>
        </mxCell>
        <mxCell id="Cz5oNogYVRAU58iX15Uh-192" value="Yes" style="curved=1;startArrow=none;endArrow=block;exitX=0;exitY=0.76;entryX=0.5;entryY=0;rounded=0;" edge="1" parent="1" source="Cz5oNogYVRAU58iX15Uh-159" target="Cz5oNogYVRAU58iX15Uh-160">
          <mxGeometry relative="1" as="geometry">
            <Array as="points">
              <mxPoint x="400" y="2121" />
            </Array>
          </mxGeometry>
        </mxCell>
        <mxCell id="Cz5oNogYVRAU58iX15Uh-193" value="No" style="curved=1;startArrow=none;endArrow=block;exitX=0.68;exitY=1;entryX=0.5;entryY=0;rounded=0;" edge="1" parent="1" source="Cz5oNogYVRAU58iX15Uh-159" target="Cz5oNogYVRAU58iX15Uh-161">
          <mxGeometry relative="1" as="geometry">
            <Array as="points">
              <mxPoint x="661" y="2121" />
            </Array>
          </mxGeometry>
        </mxCell>
        <mxCell id="Cz5oNogYVRAU58iX15Uh-194" value="" style="curved=1;startArrow=none;endArrow=block;exitX=0.5;exitY=1;entryX=0.5;entryY=0;rounded=0;" edge="1" parent="1" source="Cz5oNogYVRAU58iX15Uh-160" target="Cz5oNogYVRAU58iX15Uh-162">
          <mxGeometry relative="1" as="geometry">
            <Array as="points" />
          </mxGeometry>
        </mxCell>
        <mxCell id="Cz5oNogYVRAU58iX15Uh-195" value="" style="curved=1;startArrow=none;endArrow=block;exitX=0.5;exitY=1;entryX=0.5;entryY=0;rounded=0;" edge="1" parent="1" source="Cz5oNogYVRAU58iX15Uh-162" target="Cz5oNogYVRAU58iX15Uh-163">
          <mxGeometry relative="1" as="geometry">
            <Array as="points" />
          </mxGeometry>
        </mxCell>
        <mxCell id="Cz5oNogYVRAU58iX15Uh-196" value="Yes" style="curved=1;startArrow=none;endArrow=block;exitX=0;exitY=0.9;entryX=0.5;entryY=0.01;rounded=0;" edge="1" parent="1" source="Cz5oNogYVRAU58iX15Uh-163" target="Cz5oNogYVRAU58iX15Uh-164">
          <mxGeometry relative="1" as="geometry">
            <Array as="points">
              <mxPoint x="260" y="2604" />
            </Array>
          </mxGeometry>
        </mxCell>
        <mxCell id="Cz5oNogYVRAU58iX15Uh-197" value="No" style="curved=1;startArrow=none;endArrow=block;exitX=1;exitY=0.9;entryX=0.5;entryY=0.01;rounded=0;" edge="1" parent="1" source="Cz5oNogYVRAU58iX15Uh-163" target="Cz5oNogYVRAU58iX15Uh-165">
          <mxGeometry relative="1" as="geometry">
            <Array as="points">
              <mxPoint x="539" y="2604" />
            </Array>
          </mxGeometry>
        </mxCell>
        <mxCell id="Cz5oNogYVRAU58iX15Uh-198" value="" style="curved=1;startArrow=none;endArrow=block;exitX=0.5;exitY=1.01;entryX=0.5;entryY=0.01;rounded=0;" edge="1" parent="1" source="Cz5oNogYVRAU58iX15Uh-164" target="Cz5oNogYVRAU58iX15Uh-166">
          <mxGeometry relative="1" as="geometry">
            <Array as="points" />
          </mxGeometry>
        </mxCell>
        <mxCell id="Cz5oNogYVRAU58iX15Uh-199" value="" style="curved=1;startArrow=none;endArrow=block;exitX=0.5;exitY=1.01;entryX=0.5;entryY=0.01;rounded=0;" edge="1" parent="1" source="Cz5oNogYVRAU58iX15Uh-166" target="Cz5oNogYVRAU58iX15Uh-167">
          <mxGeometry relative="1" as="geometry">
            <Array as="points" />
          </mxGeometry>
        </mxCell>
      </root>
    </mxGraphModel>
  </diagram>
</mxfile>
